<?xml version="1.0" encoding="UTF-8"?>
<svg xmlns="http://www.w3.org/2000/svg" width="3000" height="3000" viewBox="0 0 3000 3000">
  <defs>
    <linearGradient id="paper" x1="0%" y1="0%" x2="100%" y2="100%">
      <stop offset="0%" stop-color="#FFE77A"/>
      <stop offset="58%" stop-color="#F7C600"/>
      <stop offset="100%" stop-color="#EFB000"/>
    </linearGradient>
    <filter id="shadow" x="-10%" y="-10%" width="120%" height="140%">
      <feDropShadow dx="0" dy="18" stdDeviation="12" flood-color="#6D4E00" flood-opacity="0.15"/>
    </filter>
    <style>
      .brand { font-family: "Avenir Next", "Helvetica Neue", Arial, sans-serif; font-size: 68px; font-weight: 900; letter-spacing: 7px; fill: #003F6B; }
      .hero { font-family: "Avenir Next Condensed", "Avenir Next", "Helvetica Neue", Arial, sans-serif; font-size: 520px; font-weight: 900; letter-spacing: 5px; fill: #003F6B; }
      .subtitle { font-family: "Avenir Next", "Helvetica Neue", Arial, sans-serif; font-size: 118px; font-weight: 900; letter-spacing: 3px; fill: #003F6B; }
      .date { font-family: "Avenir Next", "Helvetica Neue", Arial, sans-serif; font-size: 58px; font-weight: 900; letter-spacing: 7px; fill: #003F6B; }
      .small { font-family: "Avenir Next", "Helvetica Neue", Arial, sans-serif; font-size: 54px; font-weight: 900; letter-spacing: 3px; fill: #003F6B; }
    </style>
  </defs>
  <rect width="3000" height="3000" fill="url(#paper)"/>
  <circle cx="2450" cy="560" r="530" fill="#FFF6CF" opacity="0.25"/>
  <circle cx="360" cy="2500" r="560" fill="#FFF6CF" opacity="0.12"/>
  <rect x="135" y="135" width="2730" height="2730" rx="92" fill="none" stroke="#003F6B" stroke-width="12" opacity="0.36"/>
  <text x="245" y="360" class="brand">IN SIMPLE TERMS WITH SATISH</text>
  <g transform="translate(2090 575)">

      <g fill="none" stroke-linecap="round" stroke-linejoin="round">
        <path d="M300 0 L570 108 V306 C570 530 446 698 300 790 C154 698 30 530 30 306 V108 Z" stroke="#003F6B" stroke-width="42"/>
        <path d="M175 382 L268 474 L438 268" stroke="#E04343" stroke-width="54"/>
        <rect x="-35" y="610" width="670" height="168" rx="54" fill="#003F6B" stroke="none"/>
        <path d="M95 694 H502" stroke="#F7C600" stroke-width="34"/>
      </g>
  </g>
  <g filter="url(#shadow)">
    <text x="245" y="1535" class="hero">PROMPT INJECTION</text>
    <text x="255" y="1775" class="subtitle">DEFENSE FOR AI AGENTS</text>
  </g>
  <path d="M260 2075 H1080" stroke="#E04343" stroke-width="24" stroke-linecap="round"/>
  <text x="260" y="2210" class="date">2026-06-06</text>
  <text x="260" y="2575" class="small">SECURITY MODEL</text>
</svg>
