<?xml version="1.0" encoding="UTF-8"?>
<svg xmlns="http://www.w3.org/2000/svg" width="3000" height="3000" viewBox="0 0 3000 3000">
  <defs>
    <linearGradient id="paper" x1="0%" y1="0%" x2="100%" y2="100%">
      <stop offset="0%" stop-color="#FFF4F8"/>
      <stop offset="58%" stop-color="#8DE6D3"/>
      <stop offset="100%" stop-color="#7B61FF"/>
    </linearGradient>
    <radialGradient id="topicGlow" cx="50%" cy="50%" r="62%">
      <stop offset="0%" stop-color="#FF4D86" stop-opacity="0.16"/>
      <stop offset="100%" stop-color="#155A62" stop-opacity="0"/>
    </radialGradient>
    <filter id="shadow" x="-10%" y="-10%" width="120%" height="140%">
      <feDropShadow dx="0" dy="18" stdDeviation="12" flood-color="#6D4E00" flood-opacity="0.15"/>
    </filter>
    <style>
      .brand { font-family: "Avenir Next", "Helvetica Neue", Arial, sans-serif; font-size: 68px; font-weight: 900; letter-spacing: 7px; fill: #221345; }
      .title { font-family: "Avenir Next Condensed", "Avenir Next", "Helvetica Neue", Arial, sans-serif; font-size: 254px; font-weight: 900; letter-spacing: 3px; fill: #221345; }
      .date { font-family: "Avenir Next", "Helvetica Neue", Arial, sans-serif; font-size: 58px; font-weight: 900; letter-spacing: 7px; fill: #221345; }
      .small { font-family: "Avenir Next", "Helvetica Neue", Arial, sans-serif; font-size: 54px; font-weight: 900; letter-spacing: 3px; fill: #221345; }
    </style>
  </defs>
  <rect width="3000" height="3000" fill="url(#paper)"/>
  <circle cx="2450" cy="560" r="530" fill="#FF5F86" opacity="0.22"/>
  <circle cx="360" cy="2500" r="560" fill="#FF5F86" opacity="0.13"/>
  <circle cx="2250" cy="1540" r="770" fill="url(#topicGlow)" opacity="0.9"/>
  <g>
  <ellipse cx="2295" cy="1325" rx="575" ry="310" fill="none" stroke="#FF4D86" stroke-width="34" stroke-linecap="round" stroke-linejoin="round" opacity="0.36"/>
  <ellipse cx="2295" cy="1325" rx="300" ry="160" fill="none" stroke="#155A62" stroke-width="24" stroke-linecap="round" stroke-linejoin="round" opacity="0.14"/>
  <path d="M1775 1325 H2815 M2295 760 V1890" fill="none" stroke="#155A62" stroke-width="24" stroke-linecap="round" stroke-linejoin="round" opacity="0.14"/>
  <path d="M1875 1985 H2740 M1945 2125 H2670 M2045 2265 H2570" fill="none" stroke="#FF4D86" stroke-width="34" stroke-linecap="round" stroke-linejoin="round" opacity="0.36"/>
  <path d="M1930 995 C2095 900 2495 900 2660 995 M1930 1660 C2095 1765 2495 1765 2660 1660" fill="none" stroke="#155A62" stroke-width="24" stroke-linecap="round" stroke-linejoin="round" opacity="0.14"/>
  <circle cx="2295" cy="1325" r="74" fill="#FF4D86" opacity="0.42"/>
  <path d="M2020 1325 C2110 1235 2200 1415 2290 1325 C2380 1235 2470 1415 2560 1325" fill="none" stroke="#FF4D86" stroke-width="34" stroke-linecap="round" stroke-linejoin="round" opacity="0.36"/>
</g>
  <rect x="135" y="135" width="2730" height="2730" rx="92" fill="none" stroke="#221345" stroke-width="12" opacity="0.36"/>
  <text x="245" y="360" class="brand">IN SIMPLE TERMS WITH SATISH</text>
  <g filter="url(#shadow)">
    <text x="245" y="1270" class="title">HOW MRI</text>
    <text x="245" y="1565" class="title">MACHINES SEE</text>
    <text x="245" y="1860" class="title">INSIDE THE BODY</text>
  </g>
  <path d="M260 2135 H1080" stroke="#FF4D86" stroke-width="24" stroke-linecap="round"/>
  <text x="260" y="2270" class="date">2026-07-12</text>
  <text x="260" y="2575" class="small">MEDICAL IMAGING</text>
</svg>
