<?xml version="1.0" encoding="UTF-8"?>
<svg xmlns="http://www.w3.org/2000/svg" width="3000" height="3000" viewBox="0 0 3000 3000">
  <defs>
    <linearGradient id="paper" x1="0%" y1="0%" x2="100%" y2="100%">
      <stop offset="0%" stop-color="#E8F6FF"/>
      <stop offset="58%" stop-color="#9DDAFF"/>
      <stop offset="100%" stop-color="#00A3FF"/>
    </linearGradient>
    <radialGradient id="topicGlow" cx="50%" cy="50%" r="62%">
      <stop offset="0%" stop-color="#00A3FF" stop-opacity="0.16"/>
      <stop offset="100%" stop-color="#003F6B" stop-opacity="0"/>
    </radialGradient>
    <filter id="shadow" x="-10%" y="-10%" width="120%" height="140%">
      <feDropShadow dx="0" dy="18" stdDeviation="12" flood-color="#6D4E00" flood-opacity="0.15"/>
    </filter>
    <style>
      .brand { font-family: "Avenir Next", "Helvetica Neue", Arial, sans-serif; font-size: 68px; font-weight: 900; letter-spacing: 7px; fill: #003F6B; }
      .title { font-family: "Avenir Next Condensed", "Avenir Next", "Helvetica Neue", Arial, sans-serif; font-size: 197px; font-weight: 900; letter-spacing: 2px; fill: #003F6B; }
      .date { font-family: "Avenir Next", "Helvetica Neue", Arial, sans-serif; font-size: 58px; font-weight: 900; letter-spacing: 7px; fill: #003F6B; }
      .small { font-family: "Avenir Next", "Helvetica Neue", Arial, sans-serif; font-size: 54px; font-weight: 900; letter-spacing: 3px; fill: #003F6B; }
    </style>
  </defs>
  <rect width="3000" height="3000" fill="url(#paper)"/>
  <circle cx="2450" cy="560" r="530" fill="#FFFFFF" opacity="0.22"/>
  <circle cx="360" cy="2500" r="560" fill="#FFFFFF" opacity="0.13"/>
  <circle cx="2250" cy="1540" r="770" fill="url(#topicGlow)" opacity="0.9"/>
  <g>
  <path d="M1905 1155 C1995 1040 2485 1040 2580 1155 C2670 1265 2735 1540 2645 1630 C2575 1700 2480 1570 2375 1570 H2105 C2000 1570 1905 1700 1835 1630 C1745 1540 1810 1265 1905 1155 Z" fill="none" stroke="#00A3FF" stroke-width="34" stroke-linecap="round" stroke-linejoin="round" opacity="0.36"/>
  <path d="M2020 1325 H2200 M2110 1235 V1415" fill="none" stroke="#003F6B" stroke-width="24" stroke-linecap="round" stroke-linejoin="round" opacity="0.14"/>
  <circle cx="2458" cy="1285" r="42" fill="#003F6B" opacity="0.25"/>
  <circle cx="2548" cy="1385" r="42" fill="#003F6B" opacity="0.25"/>
  <path d="M1840 2050 C2040 1900 2440 2200 2660 2050" fill="none" stroke="#003F6B" stroke-width="24" stroke-linecap="round" stroke-linejoin="round" opacity="0.14"/>
</g>
  <rect x="135" y="135" width="2730" height="2730" rx="92" fill="none" stroke="#003F6B" stroke-width="12" opacity="0.36"/>
  <text x="245" y="360" class="brand">IN SIMPLE TERMS WITH SATISH</text>
  <g filter="url(#shadow)">
    <text x="245" y="1193" class="title">HOW ONLINE</text>
    <text x="245" y="1422" class="title">GAMES KEEP</text>
    <text x="245" y="1651" class="title">EVERYONE IN</text>
    <text x="245" y="1880" class="title">SYNC</text>
  </g>
  <path d="M260 2135 H1080" stroke="#00A3FF" stroke-width="24" stroke-linecap="round"/>
  <text x="260" y="2270" class="date">2026-06-26</text>
  <text x="260" y="2575" class="small">REAL-TIME SYSTEMS</text>
</svg>
