<?xml version="1.0" encoding="UTF-8"?>
<svg xmlns="http://www.w3.org/2000/svg" width="3000" height="3000" viewBox="0 0 3000 3000">
  <defs>
    <linearGradient id="paper" x1="0%" y1="0%" x2="100%" y2="100%">
      <stop offset="0%" stop-color="#EAFBF4"/>
      <stop offset="58%" stop-color="#8DDDC8"/>
      <stop offset="100%" stop-color="#17324D"/>
    </linearGradient>
    <radialGradient id="topicGlow" cx="50%" cy="50%" r="62%">
      <stop offset="0%" stop-color="#1E7A5F" stop-opacity="0.16"/>
      <stop offset="100%" stop-color="#17324D" stop-opacity="0"/>
    </radialGradient>
    <filter id="shadow" x="-10%" y="-10%" width="120%" height="140%">
      <feDropShadow dx="0" dy="18" stdDeviation="12" flood-color="#6D4E00" flood-opacity="0.15"/>
    </filter>
    <style>
      .brand { font-family: "Avenir Next", "Helvetica Neue", Arial, sans-serif; font-size: 68px; font-weight: 900; letter-spacing: 7px; fill: #10233A; }
      .title { font-family: "Avenir Next Condensed", "Avenir Next", "Helvetica Neue", Arial, sans-serif; font-size: 293px; font-weight: 900; letter-spacing: 3px; fill: #10233A; }
      .date { font-family: "Avenir Next", "Helvetica Neue", Arial, sans-serif; font-size: 58px; font-weight: 900; letter-spacing: 7px; fill: #10233A; }
      .small { font-family: "Avenir Next", "Helvetica Neue", Arial, sans-serif; font-size: 54px; font-weight: 900; letter-spacing: 3px; fill: #10233A; }
    </style>
  </defs>
  <rect width="3000" height="3000" fill="url(#paper)"/>
  <circle cx="2450" cy="560" r="530" fill="#FFFFFF" opacity="0.22"/>
  <circle cx="360" cy="2500" r="560" fill="#FFFFFF" opacity="0.13"/>
  <circle cx="2250" cy="1540" r="770" fill="url(#topicGlow)" opacity="0.9"/>
  <g>
  <path d="M2305 805 L2650 955 V1250 C2650 1540 2505 1765 2305 1915 C2105 1765 1960 1540 1960 1250 V955 Z" fill="none" stroke="#1E7A5F" stroke-width="34" stroke-linecap="round" stroke-linejoin="round" opacity="0.36"/>
  <rect x="2115" y="1245" width="380" height="290" rx="70" fill="none" stroke="#17324D" stroke-width="24" stroke-linecap="round" stroke-linejoin="round" opacity="0.14"/>
  <path d="M2190 1245 V1140 C2190 1045 2240 990 2305 990 C2370 990 2420 1045 2420 1140 V1245" fill="none" stroke="#17324D" stroke-width="24" stroke-linecap="round" stroke-linejoin="round" opacity="0.14"/>
  <circle cx="2210" cy="2095" r="46" fill="#1E7A5F" opacity="0.42"/>
  <circle cx="2350" cy="2095" r="46" fill="#1E7A5F" opacity="0.42"/>
  <circle cx="2490" cy="2095" r="46" fill="#1E7A5F" opacity="0.42"/>
  <path d="M1925 2235 H2705 M2015 2355 H2615" fill="none" stroke="#1E7A5F" stroke-width="34" stroke-linecap="round" stroke-linejoin="round" opacity="0.36"/>
</g>
  <rect x="135" y="135" width="2730" height="2730" rx="92" fill="none" stroke="#10233A" stroke-width="12" opacity="0.36"/>
  <text x="245" y="360" class="brand">IN SIMPLE TERMS WITH SATISH</text>
  <g filter="url(#shadow)">
    <text x="245" y="1414" class="title">HOW PASSWORDS</text>
    <text x="245" y="1754" class="title">GET CRACKED</text>
  </g>
  <path d="M260 2135 H1080" stroke="#1E7A5F" stroke-width="24" stroke-linecap="round"/>
  <text x="260" y="2270" class="date">2026-07-25</text>
  <text x="260" y="2575" class="small">PASSWORD SECURITY</text>
</svg>
