<?xml version="1.0" encoding="UTF-8"?>
<svg xmlns="http://www.w3.org/2000/svg" width="3000" height="3000" viewBox="0 0 3000 3000">
  <defs>
    <linearGradient id="paper" x1="0%" y1="0%" x2="100%" y2="100%">
      <stop offset="0%" stop-color="#EAF4FF"/>
      <stop offset="58%" stop-color="#9CCBFF"/>
      <stop offset="100%" stop-color="#006DCE"/>
    </linearGradient>
    <radialGradient id="topicGlow" cx="50%" cy="50%" r="62%">
      <stop offset="0%" stop-color="#006DCE" stop-opacity="0.16"/>
      <stop offset="100%" stop-color="#003F6B" stop-opacity="0"/>
    </radialGradient>
    <filter id="shadow" x="-10%" y="-10%" width="120%" height="140%">
      <feDropShadow dx="0" dy="18" stdDeviation="12" flood-color="#6D4E00" flood-opacity="0.15"/>
    </filter>
    <style>
      .brand { font-family: "Avenir Next", "Helvetica Neue", Arial, sans-serif; font-size: 68px; font-weight: 900; letter-spacing: 7px; fill: #003F6B; }
      .title { font-family: "Avenir Next Condensed", "Avenir Next", "Helvetica Neue", Arial, sans-serif; font-size: 254px; font-weight: 900; letter-spacing: 3px; fill: #003F6B; }
      .date { font-family: "Avenir Next", "Helvetica Neue", Arial, sans-serif; font-size: 58px; font-weight: 900; letter-spacing: 7px; fill: #003F6B; }
      .small { font-family: "Avenir Next", "Helvetica Neue", Arial, sans-serif; font-size: 54px; font-weight: 900; letter-spacing: 3px; fill: #003F6B; }
    </style>
  </defs>
  <rect width="3000" height="3000" fill="url(#paper)"/>
  <circle cx="2450" cy="560" r="530" fill="#FFFFFF" opacity="0.22"/>
  <circle cx="360" cy="2500" r="560" fill="#FFFFFF" opacity="0.13"/>
  <circle cx="2250" cy="1540" r="770" fill="url(#topicGlow)" opacity="0.9"/>
  <g>
  <rect x="1985" y="900" width="620" height="460" rx="86" fill="none" stroke="#006DCE" stroke-width="34" stroke-linecap="round" stroke-linejoin="round" opacity="0.36"/>
  <path d="M2125 1045 H2465 M2125 1175 H2380 M2125 1305 H2525" fill="none" stroke="#003F6B" stroke-width="24" stroke-linecap="round" stroke-linejoin="round" opacity="0.14"/>
  <circle cx="1875" cy="1710" r="82" fill="#006DCE" opacity="0.38"/>
  <circle cx="2300" cy="1865" r="82" fill="#006DCE" opacity="0.38"/>
  <circle cx="2705" cy="1695" r="82" fill="#006DCE" opacity="0.38"/>
  <path d="M1955 1740 L2225 1835 M2375 1835 L2630 1725" fill="none" stroke="#006DCE" stroke-width="34" stroke-linecap="round" stroke-linejoin="round" opacity="0.36"/>
  <path d="M2040 2210 H2630 M2115 2090 V2330 M2315 2090 V2330 M2515 2090 V2330" fill="none" stroke="#003F6B" stroke-width="24" stroke-linecap="round" stroke-linejoin="round" opacity="0.14"/>
</g>
  <rect x="135" y="135" width="2730" height="2730" rx="92" fill="none" stroke="#003F6B" stroke-width="12" opacity="0.36"/>
  <text x="245" y="360" class="brand">IN SIMPLE TERMS WITH SATISH</text>
  <g filter="url(#shadow)">
    <text x="245" y="1270" class="title">WHAT EXACTLY IS</text>
    <text x="245" y="1565" class="title">A COMPUTER</text>
    <text x="245" y="1860" class="title">CHIP?</text>
  </g>
  <path d="M260 2135 H1080" stroke="#006DCE" stroke-width="24" stroke-linecap="round"/>
  <text x="260" y="2270" class="date">2026-07-06</text>
  <text x="260" y="2575" class="small">COMPUTE BASICS</text>
</svg>
