<?xml version="1.0" encoding="UTF-8"?>
<svg xmlns="http://www.w3.org/2000/svg" width="3000" height="3000" viewBox="0 0 3000 3000">
  <defs>
    <linearGradient id="bg" x1="0%" y1="0%" x2="100%" y2="100%">
      <stop offset="0%" stop-color="#20101A"/>
      <stop offset="48%" stop-color="#6A2C48"/>
      <stop offset="100%" stop-color="#182940"/>
    </linearGradient>
    <radialGradient id="leftGlow" cx="26%" cy="34%" r="58%">
      <stop offset="0%" stop-color="#FF7A90" stop-opacity="0.34"/>
      <stop offset="58%" stop-color="#38F2FF" stop-opacity="0.10"/>
      <stop offset="100%" stop-color="#20101A" stop-opacity="0"/>
    </radialGradient>
    <radialGradient id="rightGlow" cx="76%" cy="40%" r="48%">
      <stop offset="0%" stop-color="#38F2FF" stop-opacity="0.30"/>
      <stop offset="100%" stop-color="#38F2FF" stop-opacity="0"/>
    </radialGradient>
    <linearGradient id="rule" x1="0%" y1="0%" x2="100%" y2="0%">
      <stop offset="0%" stop-color="#FF7A90"/>
      <stop offset="55%" stop-color="#38F2FF"/>
      <stop offset="100%" stop-color="#B6FF4D"/>
    </linearGradient>
    <filter id="deepShadow" x="-20%" y="-20%" width="140%" height="150%">
      <feDropShadow dx="0" dy="24" stdDeviation="20" flood-color="#000000" flood-opacity="0.40"/>
    </filter>
    <filter id="softGlow" x="-40%" y="-40%" width="180%" height="180%">
      <feGaussianBlur stdDeviation="16" result="blur"/>
      <feMerge>
        <feMergeNode in="blur"/>
        <feMergeNode in="SourceGraphic"/>
      </feMerge>
    </filter>
    <pattern id="dotGrid" width="96" height="96" patternUnits="userSpaceOnUse">
      <circle cx="7" cy="7" r="3" fill="#BFEFFF" opacity="0.12"/>
    </pattern>
    <style>
      .brand { font-family: "Avenir Next", "Helvetica Neue", Arial, sans-serif; font-size: 58px; font-weight: 900; letter-spacing: 8px; fill: #E8FBFF; }
      .eyebrow { font-family: "Avenir Next", "Helvetica Neue", Arial, sans-serif; font-size: 52px; font-weight: 900; letter-spacing: 7px; fill: #38F2FF; }
      .title { font-family: "Avenir Next Condensed", "Avenir Next", "Helvetica Neue", Arial, sans-serif; font-size: 210px; font-weight: 950; letter-spacing: -1px; fill: #F6FCFF; }
      .small { font-family: "Avenir Next", "Helvetica Neue", Arial, sans-serif; font-size: 48px; font-weight: 900; letter-spacing: 4px; fill: #BDEEFF; }
      .label { font-family: "Avenir Next", "Helvetica Neue", Arial, sans-serif; font-size: 42px; font-weight: 900; letter-spacing: 4px; fill: #E8FBFF; }
      .micro { font-family: "Avenir Next", "Helvetica Neue", Arial, sans-serif; font-size: 34px; font-weight: 800; letter-spacing: 3px; fill: #B8D9E8; }
    </style>
  </defs>

  <rect width="3000" height="3000" fill="url(#bg)"/>
  <rect width="3000" height="3000" fill="url(#dotGrid)" opacity="0.48"/>
  <circle cx="820" cy="980" r="1050" fill="url(#leftGlow)"/>
  <circle cx="2350" cy="1060" r="860" fill="url(#rightGlow)"/>
  <path d="M180 460 C650 350 980 520 1320 700 C1705 904 2030 760 2570 515" fill="none" stroke="#FF7A90" stroke-width="7" opacity="0.22"/>
  <path d="M260 2430 C780 2180 1240 2310 1700 2440 C2080 2548 2360 2505 2750 2310" fill="none" stroke="#38F2FF" stroke-width="7" opacity="0.18"/>

  <rect x="120" y="120" width="2760" height="2760" rx="110" fill="none" stroke="#AEEFFF" stroke-width="10" opacity="0.34"/>
  <rect x="165" y="165" width="2670" height="2670" rx="86" fill="none" stroke="#FF7A90" stroke-width="3" opacity="0.24"/>

  <text x="245" y="345" class="brand">IN SIMPLE TERMS WITH SATISH</text>
  <text x="245" y="540" class="eyebrow">DAILY TECH BRIEF</text>

  <g filter="url(#deepShadow)">
    <text x="245" y="990" class="title">HOW BACKGROUND</text>
    <text x="245" y="1238" class="title">AI AGENTS GET</text>
    <text x="245" y="1486" class="title">PERMISSION</text>
  </g>

  <g filter="url(#softGlow)" opacity="0.96">
    <g>
      <circle cx="2230" cy="1120" r="260" fill="#081E34" stroke="#38F2FF" stroke-width="14"/>
      <path d="M2230 940 V1125 L2385 1210" fill="none" stroke="#B6FF4D" stroke-width="18" stroke-linecap="round"/>
      <rect x="1840" y="1510" width="360" height="360" rx="72" fill="#102A44" stroke="#FF7A90" stroke-width="12"/>
      <rect x="2355" y="1510" width="360" height="360" rx="72" fill="#102A44" stroke="#38F2FF" stroke-width="12"/>
      <path d="M1985 1645 H2055 M1985 1742 H2100 M2500 1645 H2580 M2500 1742 H2620" stroke="#F6FCFF" stroke-width="14" stroke-linecap="round" opacity="0.70"/>
      <path d="M2200 1690 H2355 M2355 1690 L2290 1640 M2355 1690 L2290 1740" fill="none" stroke="#B6FF4D" stroke-width="16" stroke-linecap="round" stroke-linejoin="round"/>
      <path d="M1900 2090 H2660" stroke="#FF7A90" stroke-width="14" stroke-linecap="round" stroke-dasharray="34 24"/>
    </g>
  </g>

  <g>
    <rect x="245" y="1960" width="1137" height="104" rx="52" fill="#102A44" stroke="#FF7A90" stroke-width="5" opacity="0.92"/>
    <text x="310" y="2028" class="label">APPROVALS + SCOPES + CONTROL</text>
    <path d="M260 2145 H1075" stroke="url(#rule)" stroke-width="22" stroke-linecap="round"/>
    <text x="260" y="2290" class="small">2026-06-07</text>
    <text x="260" y="2580" class="small">AGENTS</text>
  </g>
</svg>
