<?xml version="1.0" encoding="UTF-8"?>
<svg xmlns="http://www.w3.org/2000/svg" width="3000" height="3000" viewBox="0 0 3000 3000">
  <defs>
    <linearGradient id="paper" x1="0%" y1="0%" x2="100%" y2="100%">
      <stop offset="0%" stop-color="#FFF2E8"/>
      <stop offset="58%" stop-color="#FFC690"/>
      <stop offset="100%" stop-color="#FF7A1A"/>
    </linearGradient>
    <radialGradient id="topicGlow" cx="50%" cy="50%" r="62%">
      <stop offset="0%" stop-color="#FF7A1A" stop-opacity="0.16"/>
      <stop offset="100%" stop-color="#003F6B" stop-opacity="0"/>
    </radialGradient>
    <filter id="shadow" x="-10%" y="-10%" width="120%" height="140%">
      <feDropShadow dx="0" dy="18" stdDeviation="12" flood-color="#6D4E00" flood-opacity="0.15"/>
    </filter>
    <style>
      .brand { font-family: "Avenir Next", "Helvetica Neue", Arial, sans-serif; font-size: 68px; font-weight: 900; letter-spacing: 7px; fill: #3D2600; }
      .title { font-family: "Avenir Next Condensed", "Avenir Next", "Helvetica Neue", Arial, sans-serif; font-size: 254px; font-weight: 900; letter-spacing: 3px; fill: #3D2600; }
      .date { font-family: "Avenir Next", "Helvetica Neue", Arial, sans-serif; font-size: 58px; font-weight: 900; letter-spacing: 7px; fill: #3D2600; }
      .small { font-family: "Avenir Next", "Helvetica Neue", Arial, sans-serif; font-size: 54px; font-weight: 900; letter-spacing: 3px; fill: #3D2600; }
    </style>
  </defs>
  <rect width="3000" height="3000" fill="url(#paper)"/>
  <circle cx="2450" cy="560" r="530" fill="#FFFFFF" opacity="0.22"/>
  <circle cx="360" cy="2500" r="560" fill="#FFFFFF" opacity="0.13"/>
  <circle cx="2250" cy="1540" r="770" fill="url(#topicGlow)" opacity="0.9"/>
  <g>
  <path d="M1810 1680 C1980 1295 2290 2015 2660 1490" fill="none" stroke="#FF7A1A" stroke-width="34" stroke-linecap="round" stroke-linejoin="round" opacity="0.36"/>
  <circle cx="1810" cy="1680" r="74" fill="#FF7A1A" opacity="0.42"/>
  <circle cx="2660" cy="1490" r="74" fill="#FF7A1A" opacity="0.42"/>
  <rect x="1995" y="1010" width="470" height="250" rx="86" fill="none" stroke="#003F6B" stroke-width="24" stroke-linecap="round" stroke-linejoin="round" opacity="0.14"/>
  <circle cx="2095" cy="1295" r="58" fill="#003F6B" opacity="0.2"/>
  <circle cx="2365" cy="1295" r="58" fill="#003F6B" opacity="0.2"/>
  <path d="M1940 1195 H2520 M2085 1010 L2185 860 H2350 L2470 1010" fill="none" stroke="#003F6B" stroke-width="24" stroke-linecap="round" stroke-linejoin="round" opacity="0.14"/>
</g>
  <rect x="135" y="135" width="2730" height="2730" rx="92" fill="none" stroke="#3D2600" stroke-width="12" opacity="0.36"/>
  <text x="245" y="360" class="brand">IN SIMPLE TERMS WITH SATISH</text>
  <g filter="url(#shadow)">
    <text x="245" y="1270" class="title">ROBOTAXIS ARE</text>
    <text x="245" y="1565" class="title">LEARNING THAT</text>
    <text x="245" y="1860" class="title">CITIES ARE HARD</text>
  </g>
  <path d="M260 2135 H1080" stroke="#FF7A1A" stroke-width="24" stroke-linecap="round"/>
  <text x="260" y="2270" class="date">2026-06-24</text>
  <text x="260" y="2575" class="small">MOBILITY SYSTEMS</text>
</svg>
