<?xml version="1.0" encoding="UTF-8"?>
<svg xmlns="http://www.w3.org/2000/svg" width="3000" height="3000" viewBox="0 0 3000 3000">
  <defs>
    <linearGradient id="paper" x1="0%" y1="0%" x2="100%" y2="100%">
      <stop offset="0%" stop-color="#ECFFF1"/>
      <stop offset="58%" stop-color="#A8F0BD"/>
      <stop offset="100%" stop-color="#12A150"/>
    </linearGradient>
    <radialGradient id="topicGlow" cx="50%" cy="50%" r="62%">
      <stop offset="0%" stop-color="#12A150" stop-opacity="0.16"/>
      <stop offset="100%" stop-color="#003F6B" stop-opacity="0"/>
    </radialGradient>
    <filter id="shadow" x="-10%" y="-10%" width="120%" height="140%">
      <feDropShadow dx="0" dy="18" stdDeviation="12" flood-color="#6D4E00" flood-opacity="0.15"/>
    </filter>
    <style>
      .brand { font-family: "Avenir Next", "Helvetica Neue", Arial, sans-serif; font-size: 68px; font-weight: 900; letter-spacing: 7px; fill: #073F2A; }
      .title { font-family: "Avenir Next Condensed", "Avenir Next", "Helvetica Neue", Arial, sans-serif; font-size: 197px; font-weight: 900; letter-spacing: 2px; fill: #073F2A; }
      .date { font-family: "Avenir Next", "Helvetica Neue", Arial, sans-serif; font-size: 58px; font-weight: 900; letter-spacing: 7px; fill: #073F2A; }
      .small { font-family: "Avenir Next", "Helvetica Neue", Arial, sans-serif; font-size: 54px; font-weight: 900; letter-spacing: 3px; fill: #073F2A; }
    </style>
  </defs>
  <rect width="3000" height="3000" fill="url(#paper)"/>
  <circle cx="2450" cy="560" r="530" fill="#FFFFFF" opacity="0.22"/>
  <circle cx="360" cy="2500" r="560" fill="#FFFFFF" opacity="0.13"/>
  <circle cx="2250" cy="1540" r="770" fill="url(#topicGlow)" opacity="0.9"/>
  <g>
  <rect x="2075" y="900" width="470" height="720" rx="170" fill="none" stroke="#12A150" stroke-width="34" stroke-linecap="round" stroke-linejoin="round" opacity="0.36"/>
  <path d="M2190 780 H2430 M2190 1740 H2430" fill="none" stroke="#003F6B" stroke-width="24" stroke-linecap="round" stroke-linejoin="round" opacity="0.14"/>
  <path d="M2175 1285 C2255 1195 2365 1195 2445 1285 C2365 1375 2255 1375 2175 1285 Z" fill="none" stroke="#003F6B" stroke-width="24" stroke-linecap="round" stroke-linejoin="round" opacity="0.14"/>
  <path d="M1840 1990 C1945 1900 2050 2080 2155 1990 C2260 1900 2365 2080 2470 1990 C2575 1900 2680 2080 2785 1990" fill="none" stroke="#12A150" stroke-width="34" stroke-linecap="round" stroke-linejoin="round" opacity="0.36"/>
</g>
  <rect x="135" y="135" width="2730" height="2730" rx="92" fill="none" stroke="#073F2A" stroke-width="12" opacity="0.36"/>
  <text x="245" y="360" class="brand">IN SIMPLE TERMS WITH SATISH</text>
  <g filter="url(#shadow)">
    <text x="245" y="1193" class="title">HOW</text>
    <text x="245" y="1422" class="title">SMARTWATCHES</text>
    <text x="245" y="1651" class="title">KNOW YOU ARE</text>
    <text x="245" y="1880" class="title">SLEEPING</text>
  </g>
  <path d="M260 2135 H1080" stroke="#12A150" stroke-width="24" stroke-linecap="round"/>
  <text x="260" y="2270" class="date">2026-06-29</text>
  <text x="260" y="2575" class="small">WEARABLE SENSORS</text>
</svg>
