<?xml version="1.0" encoding="UTF-8"?>
<svg xmlns="http://www.w3.org/2000/svg" width="3000" height="3000" viewBox="0 0 3000 3000">
  <defs>
    <linearGradient id="paper" x1="0%" y1="0%" x2="100%" y2="100%">
      <stop offset="0%" stop-color="#EAF4FF"/>
      <stop offset="58%" stop-color="#A8D7FF"/>
      <stop offset="100%" stop-color="#0074D9"/>
    </linearGradient>
    <radialGradient id="topicGlow" cx="50%" cy="50%" r="62%">
      <stop offset="0%" stop-color="#0074D9" stop-opacity="0.16"/>
      <stop offset="100%" stop-color="#003F6B" stop-opacity="0"/>
    </radialGradient>
    <filter id="shadow" x="-10%" y="-10%" width="120%" height="140%">
      <feDropShadow dx="0" dy="18" stdDeviation="12" flood-color="#6D4E00" flood-opacity="0.15"/>
    </filter>
    <style>
      .brand { font-family: "Avenir Next", "Helvetica Neue", Arial, sans-serif; font-size: 68px; font-weight: 900; letter-spacing: 7px; fill: #003F6B; }
      .title { font-family: "Avenir Next Condensed", "Avenir Next", "Helvetica Neue", Arial, sans-serif; font-size: 197px; font-weight: 900; letter-spacing: 2px; fill: #003F6B; }
      .date { font-family: "Avenir Next", "Helvetica Neue", Arial, sans-serif; font-size: 58px; font-weight: 900; letter-spacing: 7px; fill: #003F6B; }
      .small { font-family: "Avenir Next", "Helvetica Neue", Arial, sans-serif; font-size: 54px; font-weight: 900; letter-spacing: 3px; fill: #003F6B; }
    </style>
  </defs>
  <rect width="3000" height="3000" fill="url(#paper)"/>
  <circle cx="2450" cy="560" r="530" fill="#FFFFFF" opacity="0.22"/>
  <circle cx="360" cy="2500" r="560" fill="#FFFFFF" opacity="0.13"/>
  <circle cx="2250" cy="1540" r="770" fill="url(#topicGlow)" opacity="0.9"/>
  <g>
  <rect x="1905" y="880" width="360" height="310" rx="64" fill="none" stroke="#0074D9" stroke-width="34" stroke-linecap="round" stroke-linejoin="round" opacity="0.36"/>
  <rect x="2350" y="880" width="360" height="310" rx="64" fill="none" stroke="#0074D9" stroke-width="34" stroke-linecap="round" stroke-linejoin="round" opacity="0.36"/>
  <rect x="1905" y="1340" width="360" height="310" rx="64" fill="none" stroke="#0074D9" stroke-width="34" stroke-linecap="round" stroke-linejoin="round" opacity="0.36"/>
  <rect x="2350" y="1340" width="360" height="310" rx="64" fill="none" stroke="#0074D9" stroke-width="34" stroke-linecap="round" stroke-linejoin="round" opacity="0.36"/>
  <path d="M2265 1035 H2350 M2085 1190 V1340 M2530 1190 V1340 M2265 1495 H2350" fill="none" stroke="#003F6B" stroke-width="24" stroke-linecap="round" stroke-linejoin="round" opacity="0.14"/>
  <path d="M1815 1855 H2800 M1935 1735 V1975 M2135 1735 V1975 M2335 1735 V1975 M2535 1735 V1975 M2735 1735 V1975" fill="none" stroke="#0074D9" stroke-width="34" stroke-linecap="round" stroke-linejoin="round" opacity="0.36"/>
  <circle cx="2085" cy="1035" r="54" fill="#0074D9" opacity="0.34"/>
  <circle cx="2530" cy="1495" r="54" fill="#0074D9" opacity="0.34"/>
</g>
  <rect x="135" y="135" width="2730" height="2730" rx="92" fill="none" stroke="#003F6B" stroke-width="12" opacity="0.36"/>
  <text x="245" y="360" class="brand">IN SIMPLE TERMS WITH SATISH</text>
  <g filter="url(#shadow)">
    <text x="245" y="1193" class="title">THE HIDDEN TECH</text>
    <text x="245" y="1422" class="title">BEHIND CHIPLETS</text>
    <text x="245" y="1651" class="title">IN MODERN AI</text>
    <text x="245" y="1880" class="title">CHIPS</text>
  </g>
  <path d="M260 2135 H1080" stroke="#0074D9" stroke-width="24" stroke-linecap="round"/>
  <text x="260" y="2270" class="date">2026-07-07</text>
  <text x="260" y="2575" class="small">CHIP ARCHITECTURE</text>
</svg>
