<?xml version="1.0" encoding="UTF-8"?>
<svg xmlns="http://www.w3.org/2000/svg" width="3000" height="3000" viewBox="0 0 3000 3000">
  <defs>
    <linearGradient id="paper" x1="0%" y1="0%" x2="100%" y2="100%">
      <stop offset="0%" stop-color="#F8FFE8"/>
      <stop offset="58%" stop-color="#B9F66D"/>
      <stop offset="100%" stop-color="#00B8A9"/>
    </linearGradient>
    <radialGradient id="topicGlow" cx="50%" cy="50%" r="62%">
      <stop offset="0%" stop-color="#00B8A9" stop-opacity="0.16"/>
      <stop offset="100%" stop-color="#102F2D" stop-opacity="0"/>
    </radialGradient>
    <filter id="shadow" x="-10%" y="-10%" width="120%" height="140%">
      <feDropShadow dx="0" dy="18" stdDeviation="12" flood-color="#6D4E00" flood-opacity="0.15"/>
    </filter>
    <style>
      .brand { font-family: "Avenir Next", "Helvetica Neue", Arial, sans-serif; font-size: 68px; font-weight: 900; letter-spacing: 7px; fill: #102F2D; }
      .title { font-family: "Avenir Next Condensed", "Avenir Next", "Helvetica Neue", Arial, sans-serif; font-size: 197px; font-weight: 900; letter-spacing: 2px; fill: #102F2D; }
      .date { font-family: "Avenir Next", "Helvetica Neue", Arial, sans-serif; font-size: 58px; font-weight: 900; letter-spacing: 7px; fill: #102F2D; }
      .small { font-family: "Avenir Next", "Helvetica Neue", Arial, sans-serif; font-size: 54px; font-weight: 900; letter-spacing: 3px; fill: #102F2D; }
    </style>
  </defs>
  <rect width="3000" height="3000" fill="url(#paper)"/>
  <circle cx="2450" cy="560" r="530" fill="#FFB000" opacity="0.22"/>
  <circle cx="360" cy="2500" r="560" fill="#FFB000" opacity="0.13"/>
  <circle cx="2250" cy="1540" r="770" fill="url(#topicGlow)" opacity="0.9"/>
  <g>
  <rect x="1850" y="960" width="790" height="520" rx="92" fill="none" stroke="#00B8A9" stroke-width="34" stroke-linecap="round" stroke-linejoin="round" opacity="0.36"/>
  <rect x="2640" y="1135" width="120" height="170" rx="36" fill="none" stroke="#102F2D" stroke-width="24" stroke-linecap="round" stroke-linejoin="round" opacity="0.14"/>
  <path d="M2245 1035 L2095 1280 H2260 L2160 1515 L2465 1185 H2285 L2375 1035 Z" fill="#00B8A9" opacity="0.36"/>
  <path d="M1840 1980 C1960 1790 2085 2135 2220 1885 C2360 1625 2515 1835 2765 1460" fill="none" stroke="#00B8A9" stroke-width="34" stroke-linecap="round" stroke-linejoin="round" opacity="0.36"/>
  <path d="M1840 2190 H2765 M2025 2050 V2315 M2305 2050 V2315 M2585 2050 V2315" fill="none" stroke="#102F2D" stroke-width="24" stroke-linecap="round" stroke-linejoin="round" opacity="0.14"/>
</g>
  <rect x="135" y="135" width="2730" height="2730" rx="92" fill="none" stroke="#102F2D" stroke-width="12" opacity="0.36"/>
  <text x="245" y="360" class="brand">IN SIMPLE TERMS WITH SATISH</text>
  <g filter="url(#shadow)">
    <text x="245" y="1193" class="title">WHY BATTERIES</text>
    <text x="245" y="1422" class="title">CHARGE FAST AT</text>
    <text x="245" y="1651" class="title">FIRST + SLOW</text>
    <text x="245" y="1880" class="title">DOWN LATER</text>
  </g>
  <path d="M260 2135 H1080" stroke="#00B8A9" stroke-width="24" stroke-linecap="round"/>
  <text x="260" y="2270" class="date">2026-07-13</text>
  <text x="260" y="2575" class="small">ENERGY STORAGE</text>
</svg>
