<?xml version="1.0" encoding="UTF-8"?>
<svg xmlns="http://www.w3.org/2000/svg" width="3000" height="3000" viewBox="0 0 3000 3000">
  <defs>
    <linearGradient id="quietYellow" x1="0%" y1="0%" x2="100%" y2="100%">
      <stop offset="0%" stop-color="#FFE375"/>
      <stop offset="58%" stop-color="#F7C600"/>
      <stop offset="100%" stop-color="#EFB000"/>
    </linearGradient>
    <filter id="softShadow" x="-10%" y="-10%" width="120%" height="140%">
      <feDropShadow dx="0" dy="16" stdDeviation="12" flood-color="#6D4E00" flood-opacity="0.16"/>
    </filter>
    <style>
      .brand { font-family: "Avenir Next", "Helvetica Neue", Arial, sans-serif; font-size: 68px; font-weight: 900; letter-spacing: 7px; fill: #003F6B; }
      .hero { font-family: "Avenir Next Condensed", "Avenir Next", "Helvetica Neue", Arial, sans-serif; font-size: 620px; font-weight: 900; letter-spacing: 7px; fill: #003F6B; }
      .subtitle { font-family: "Avenir Next", "Helvetica Neue", Arial, sans-serif; font-size: 112px; font-weight: 900; letter-spacing: 3px; fill: #003F6B; }
      .date { font-family: "Avenir Next", "Helvetica Neue", Arial, sans-serif; font-size: 58px; font-weight: 900; letter-spacing: 7px; fill: #003F6B; }
    </style>
  </defs>

  <rect width="3000" height="3000" fill="url(#quietYellow)"/>
  <circle cx="2460" cy="560" r="520" fill="#FFF6CF" opacity="0.24"/>
  <circle cx="320" cy="2520" r="560" fill="#FFF6CF" opacity="0.13"/>

  <text x="260" y="360" class="brand">IN SIMPLE TERMS WITH SATISH</text>

  <g transform="translate(2020 620)">
    
    <g fill="none" stroke="#003F6B" stroke-linecap="round" stroke-linejoin="round">
      <rect x="0" y="0" width="650" height="500" rx="76" stroke-width="34"/>
      <path d="M0 132 H650" stroke-width="30"/>
      <circle cx="82" cy="66" r="22" fill="#008B7A" stroke="none"/>
      <circle cx="152" cy="66" r="22" fill="#008B7A" stroke="none" opacity="0.62"/>
      <circle cx="222" cy="66" r="22" fill="#008B7A" stroke="none" opacity="0.36"/>
      <path d="M150 335 H260 L355 245 L500 370" stroke-width="34"/>
      <circle cx="150" cy="335" r="42" fill="#F7C600" stroke-width="24"/>
      <circle cx="355" cy="245" r="42" fill="#F7C600" stroke-width="24"/>
      <circle cx="500" cy="370" r="42" fill="#F7C600" stroke-width="24"/>
      <path d="M500 185 C595 185 705 230 760 330" stroke="#008B7A" stroke-width="32"/>
      <path d="M760 330 L692 318 M760 330 L722 270" stroke="#008B7A" stroke-width="32"/>
    </g>
  </g>

  <g filter="url(#softShadow)">
    <text x="250" y="1650" class="hero">NLWEB</text>
  </g>
  <text x="270" y="1835" class="subtitle">AI-READABLE WEBSITES</text>

  <path d="M270 2145 H1080" stroke="#008B7A" stroke-width="22" stroke-linecap="round"/>
  <text x="270" y="2275" class="date">2026-06-05</text>
</svg>
