<?xml version="1.0" encoding="UTF-8"?>
<svg xmlns="http://www.w3.org/2000/svg" width="3000" height="3000" viewBox="0 0 3000 3000">
  <defs>
    <linearGradient id="paper" x1="0%" y1="0%" x2="100%" y2="100%">
      <stop offset="0%" stop-color="#F3ECFF"/>
      <stop offset="58%" stop-color="#D4B8FF"/>
      <stop offset="100%" stop-color="#8A5CF6"/>
    </linearGradient>
    <radialGradient id="topicGlow" cx="50%" cy="50%" r="62%">
      <stop offset="0%" stop-color="#8A5CF6" stop-opacity="0.16"/>
      <stop offset="100%" stop-color="#003F6B" stop-opacity="0"/>
    </radialGradient>
    <filter id="shadow" x="-10%" y="-10%" width="120%" height="140%">
      <feDropShadow dx="0" dy="18" stdDeviation="12" flood-color="#6D4E00" flood-opacity="0.15"/>
    </filter>
    <style>
      .brand { font-family: "Avenir Next", "Helvetica Neue", Arial, sans-serif; font-size: 68px; font-weight: 900; letter-spacing: 7px; fill: #241A4A; }
      .title { font-family: "Avenir Next Condensed", "Avenir Next", "Helvetica Neue", Arial, sans-serif; font-size: 266px; font-weight: 900; letter-spacing: 3px; fill: #241A4A; }
      .date { font-family: "Avenir Next", "Helvetica Neue", Arial, sans-serif; font-size: 58px; font-weight: 900; letter-spacing: 7px; fill: #241A4A; }
      .small { font-family: "Avenir Next", "Helvetica Neue", Arial, sans-serif; font-size: 54px; font-weight: 900; letter-spacing: 3px; fill: #241A4A; }
    </style>
  </defs>
  <rect width="3000" height="3000" fill="url(#paper)"/>
  <circle cx="2450" cy="560" r="530" fill="#FFFFFF" opacity="0.22"/>
  <circle cx="360" cy="2500" r="560" fill="#FFFFFF" opacity="0.13"/>
  <circle cx="2250" cy="1540" r="770" fill="url(#topicGlow)" opacity="0.9"/>
  <g>
  <path d="M2240 820 L2635 1050 V1510 L2240 1740 L1845 1510 V1050 Z" fill="none" stroke="#8A5CF6" stroke-width="34" stroke-linecap="round" stroke-linejoin="round" opacity="0.36"/>
  <path d="M1845 1050 L2240 1280 L2635 1050 M2240 1280 V1740" fill="none" stroke="#003F6B" stroke-width="24" stroke-linecap="round" stroke-linejoin="round" opacity="0.14"/>
  <path d="M1760 1995 H2740 M1855 2115 H2645 M1975 2235 H2525" fill="none" stroke="#003F6B" stroke-width="24" stroke-linecap="round" stroke-linejoin="round" opacity="0.14"/>
  <circle cx="1980" cy="1995" r="38" fill="#8A5CF6" opacity="0.4"/>
  <circle cx="2290" cy="2115" r="38" fill="#8A5CF6" opacity="0.4"/>
  <circle cx="2525" cy="2235" r="38" fill="#8A5CF6" opacity="0.4"/>
</g>
  <rect x="135" y="135" width="2730" height="2730" rx="92" fill="none" stroke="#241A4A" stroke-width="12" opacity="0.36"/>
  <text x="245" y="360" class="brand">IN SIMPLE TERMS WITH SATISH</text>
  <g filter="url(#shadow)">
    <text x="245" y="1262" class="title">THE FAKE WORLD</text>
    <text x="245" y="1571" class="title">WHERE REAL AI</text>
    <text x="245" y="1880" class="title">LEARNS</text>
  </g>
  <path d="M260 2135 H1080" stroke="#8A5CF6" stroke-width="24" stroke-linecap="round"/>
  <text x="260" y="2270" class="date">2026-06-25</text>
  <text x="260" y="2575" class="small">SIMULATION SYSTEMS</text>
</svg>
