<?xml version="1.0" encoding="UTF-8"?>
<svg xmlns="http://www.w3.org/2000/svg" width="3000" height="3000" viewBox="0 0 3000 3000">
  <defs>
    <linearGradient id="paper" x1="0%" y1="0%" x2="100%" y2="100%">
      <stop offset="0%" stop-color="#F8ECFF"/>
      <stop offset="58%" stop-color="#DBA7FF"/>
      <stop offset="100%" stop-color="#B23AEE"/>
    </linearGradient>
    <radialGradient id="topicGlow" cx="50%" cy="50%" r="62%">
      <stop offset="0%" stop-color="#B23AEE" stop-opacity="0.16"/>
      <stop offset="100%" stop-color="#003F6B" stop-opacity="0"/>
    </radialGradient>
    <filter id="shadow" x="-10%" y="-10%" width="120%" height="140%">
      <feDropShadow dx="0" dy="18" stdDeviation="12" flood-color="#6D4E00" flood-opacity="0.15"/>
    </filter>
    <style>
      .brand { font-family: "Avenir Next", "Helvetica Neue", Arial, sans-serif; font-size: 68px; font-weight: 900; letter-spacing: 7px; fill: #2A164A; }
      .title { font-family: "Avenir Next Condensed", "Avenir Next", "Helvetica Neue", Arial, sans-serif; font-size: 180px; font-weight: 900; letter-spacing: 2px; fill: #2A164A; }
      .date { font-family: "Avenir Next", "Helvetica Neue", Arial, sans-serif; font-size: 58px; font-weight: 900; letter-spacing: 7px; fill: #2A164A; }
      .small { font-family: "Avenir Next", "Helvetica Neue", Arial, sans-serif; font-size: 54px; font-weight: 900; letter-spacing: 3px; fill: #2A164A; }
    </style>
  </defs>
  <rect width="3000" height="3000" fill="url(#paper)"/>
  <circle cx="2450" cy="560" r="530" fill="#FFFFFF" opacity="0.22"/>
  <circle cx="360" cy="2500" r="560" fill="#FFFFFF" opacity="0.13"/>
  <circle cx="2250" cy="1540" r="770" fill="url(#topicGlow)" opacity="0.9"/>
  <g>
  <circle cx="2305" cy="1390" r="62" fill="#B23AEE" opacity="0.52"/>
  <ellipse cx="2305" cy="1390" rx="520" ry="170" fill="none" stroke="#B23AEE" stroke-width="34" stroke-linecap="round" stroke-linejoin="round" opacity="0.36"/>
  <ellipse cx="2305" cy="1390" rx="520" ry="170" transform="rotate(60 2305 1390)" fill="none" stroke="#003F6B" stroke-width="24" stroke-linecap="round" stroke-linejoin="round" opacity="0.14"/>
  <ellipse cx="2305" cy="1390" rx="520" ry="170" transform="rotate(-60 2305 1390)" fill="none" stroke="#003F6B" stroke-width="24" stroke-linecap="round" stroke-linejoin="round" opacity="0.14"/>
  <path d="M1900 2070 C2055 1920 2205 2220 2360 2070 C2515 1920 2665 2220 2820 2070" fill="none" stroke="#B23AEE" stroke-width="34" stroke-linecap="round" stroke-linejoin="round" opacity="0.36"/>
</g>
  <rect x="135" y="135" width="2730" height="2730" rx="92" fill="none" stroke="#2A164A" stroke-width="12" opacity="0.36"/>
  <text x="245" y="360" class="brand">IN SIMPLE TERMS WITH SATISH</text>
  <g filter="url(#shadow)">
    <text x="245" y="1165" class="title">HOW QUANTUM</text>
    <text x="245" y="1378" class="title">COMPUTERS ARE</text>
    <text x="245" y="1591" class="title">DIFFERENT FROM</text>
    <text x="245" y="1804" class="title">NORMAL COMPUTERS</text>
  </g>
  <path d="M260 2135 H1080" stroke="#B23AEE" stroke-width="24" stroke-linecap="round"/>
  <text x="260" y="2270" class="date">2026-07-22</text>
  <text x="260" y="2575" class="small">QUANTUM COMPUTING</text>
</svg>
